<svg width="24" height="24" viewBox="0 0 24 24" fill="none" xmlns="http://www.w3.org/2000/svg">
<path fill-rule="evenodd" clip-rule="evenodd" d="M17.012 3.33203H6.974C6.45094 3.33351 5.94975 3.53206 5.57989 3.88431C5.21003 4.23656 5.00156 4.71388 5 5.21203V13.6654C5 15.5811 5.78555 17.4135 7.17281 18.7347C9.87555 21.3087 14.1236 21.3096 16.8263 18.7355C18.2143 17.4137 18.9993 15.5803 18.9982 13.6636L18.993 5.2187C18.9931 4.9709 18.942 4.7255 18.8425 4.49654C18.743 4.26758 18.5971 4.05954 18.4131 3.88432C18.2291 3.7091 18.0107 3.57013 17.7703 3.47536C17.5299 3.3806 17.2722 3.33189 17.012 3.33203ZM11.3863 9.54217L8.38871 11.8697C7.95248 12.2084 7.87343 12.8366 8.21214 13.2728C8.55085 13.7091 9.17906 13.7881 9.61529 13.4494L11.9996 11.5981L14.384 13.4494C14.8202 13.7881 15.4484 13.7091 15.7871 13.2728C16.1258 12.8366 16.0468 12.2084 15.6105 11.8697L12.6129 9.54217C12.2521 9.26198 11.7472 9.26198 11.3863 9.54217Z" fill="#BA7159"/>
</svg>
