<svg width="24" height="24" viewBox="0 0 24 24" fill="none" xmlns="http://www.w3.org/2000/svg">
<path fill-rule="evenodd" clip-rule="evenodd" d="M17.012 3.33203H6.974C6.45094 3.33351 5.94975 3.53206 5.57989 3.88431C5.21003 4.23656 5.00156 4.71388 5 5.21203V13.6654C5 15.5811 5.78555 17.4135 7.17281 18.7347C9.87555 21.3087 14.1236 21.3096 16.8263 18.7355C18.2143 17.4137 18.9993 15.5803 18.9982 13.6636L18.993 5.2187C18.9931 4.9709 18.942 4.7255 18.8425 4.49654C18.743 4.26758 18.5971 4.05954 18.4131 3.88432C18.2291 3.7091 18.0107 3.57013 17.7703 3.47536C17.5299 3.3806 17.2722 3.33189 17.012 3.33203ZM12.6127 5.01327C12.2518 4.73308 11.747 4.73308 11.3861 5.01327L8.38849 7.34079C7.95226 7.6795 7.87321 8.30771 8.21192 8.74394C8.55063 9.18016 9.17884 9.25922 9.61506 8.92051L11.9994 7.06918L14.3837 8.92051C14.82 9.25922 15.4482 9.18016 15.7869 8.74394C16.1256 8.30771 16.0465 7.6795 15.6103 7.34079L12.6127 5.01327ZM11.3861 9.34725L8.38848 11.6748C7.95226 12.0135 7.87321 12.6417 8.21192 13.0779C8.55063 13.5141 9.17884 13.5932 9.61506 13.2545L11.9994 11.4032L14.3837 13.2545C14.82 13.5932 15.4482 13.5141 15.7869 13.0779C16.1256 12.6417 16.0465 12.0135 15.6103 11.6748L12.6127 9.34725C12.2518 9.06706 11.747 9.06706 11.3861 9.34725ZM11.3861 13.6812L8.38848 16.0088C7.95226 16.3475 7.87321 16.9757 8.21192 17.4119C8.55063 17.8481 9.17884 17.9272 9.61506 17.5885L11.9994 15.7371L14.3837 17.5885C14.82 17.9272 15.4482 17.8481 15.7869 17.4119C16.1256 16.9757 16.0465 16.3475 15.6103 16.0088L12.6127 13.6812C12.2518 13.401 11.747 13.401 11.3861 13.6812Z" fill="#ECBB5D"/>
</svg>
