<svg width="24" height="24" viewBox="0 0 24 24" fill="none" xmlns="http://www.w3.org/2000/svg">
<path fill-rule="evenodd" clip-rule="evenodd" d="M17.012 3.33203H6.974C6.45094 3.33351 5.94975 3.53206 5.57989 3.88431C5.21003 4.23656 5.00156 4.71388 5 5.21203V13.6654C5 15.5811 5.78555 17.4135 7.17281 18.7347C9.87555 21.3087 14.1236 21.3096 16.8263 18.7355C18.2143 17.4137 18.9993 15.5803 18.9982 13.6636L18.993 5.2187C18.9931 4.9709 18.942 4.7255 18.8425 4.49654C18.743 4.26758 18.5971 4.05954 18.4131 3.88432C18.2291 3.7091 18.0107 3.57013 17.7703 3.47536C17.5299 3.3806 17.2722 3.33189 17.012 3.33203ZM8.38871 9.86969L11.3863 7.54217C11.7472 7.26198 12.2521 7.26198 12.6129 7.54217L15.6105 9.8697C16.0468 10.2084 16.1258 10.8366 15.7871 11.2728C15.4484 11.7091 14.8202 11.7881 14.384 11.4494L11.9996 9.59808L9.61529 11.4494C9.17906 11.7881 8.55085 11.7091 8.21214 11.2728C7.87343 10.8366 7.95248 10.2084 8.38871 9.86969ZM11.3863 11.8762L8.38871 14.2037C7.95248 14.5424 7.87343 15.1706 8.21214 15.6068C8.55085 16.0431 9.17906 16.1221 9.61529 15.7834L11.9996 13.9321L14.384 15.7834C14.8202 16.1221 15.4484 16.0431 15.7871 15.6068C16.1258 15.1706 16.0468 14.5424 15.6105 14.2037L12.6129 11.8762C12.2521 11.596 11.7472 11.596 11.3863 11.8762Z" fill="#A8A8A8"/>
</svg>
